<svg width="30" height="30" viewBox="0 0 30 30" fill="none" xmlns="http://www.w3.org/2000/svg">
<g id="Search icon">
<path id="Search icon_2" fill-rule="evenodd" clip-rule="evenodd" d="M21.4315 11.7631C21.4315 16.497 17.4133 20.5261 12.2158 20.5261C7.01825 20.5261 3 16.497 3 11.7631C3 7.02913 7.01825 3 12.2158 3C17.4133 3 21.4315 7.02913 21.4315 11.7631ZM18.7644 21.6948C16.8718 22.8544 14.6252 23.5261 12.2158 23.5261C5.46918 23.5261 0 18.2596 0 11.7631C0 5.26651 5.46918 0 12.2158 0C18.9623 0 24.4315 5.26651 24.4315 11.7631C24.4315 14.8751 23.1765 17.7049 21.1272 19.8088L28.8655 27.2904L26.7087 29.3757L18.7644 21.6948Z" fill="#F2F4F8"/>
</g>
</svg>
